<svg width="32" height="33" viewBox="0 0 32 33" fill="none" xmlns="http://www.w3.org/2000/svg">
<path d="M1.24693 0.000205255C1.08402 -0.00364105 0.922273 0.0466045 0.771093 0.148021C0.619913 0.249438 0.482315 0.400004 0.366295 0.590969C0.250274 0.781933 0.158146 1.00949 0.0952641 1.26041C0.0323819 1.51133 0 1.78061 0 2.05261C0 2.3246 0.0323819 2.59389 0.0952641 2.84481C0.158146 3.09573 0.250274 3.32328 0.366295 3.51425C0.482315 3.70521 0.619913 3.85578 0.771093 3.9572C0.922273 4.05861 1.08402 4.10886 1.24693 4.10501H30.7531C30.916 4.10886 31.0777 4.05861 31.2289 3.9572C31.3801 3.85578 31.5177 3.70521 31.6337 3.51425C31.7497 3.32328 31.8419 3.09573 31.9047 2.84481C31.9676 2.59389 32 2.3246 32 2.05261C32 1.78061 31.9676 1.51133 31.9047 1.26041C31.8419 1.00949 31.7497 0.781933 31.6337 0.590969C31.5177 0.400004 31.3801 0.249438 31.2289 0.148021C31.0777 0.0466045 30.916 -0.00364105 30.7531 0.000205255H1.24693ZM1.24693 14.367C1.08402 14.3632 0.922273 14.4134 0.771093 14.5148C0.619913 14.6163 0.482315 14.7668 0.366295 14.9578C0.250274 15.1488 0.158146 15.3763 0.0952641 15.6272C0.0323819 15.8782 0 16.1474 0 16.4194C0 16.6914 0.0323819 16.9607 0.0952641 17.2116C0.158146 17.4625 0.250274 17.6901 0.366295 17.8811C0.482315 18.072 0.619913 18.2226 0.771093 18.324C0.922273 18.4254 1.08402 18.4757 1.24693 18.4718H30.7531C30.916 18.4757 31.0777 18.4254 31.2289 18.324C31.3801 18.2226 31.5177 18.072 31.6337 17.8811C31.7497 17.6901 31.8419 17.4625 31.9047 17.2116C31.9676 16.9607 32 16.6914 32 16.4194C32 16.1474 31.9676 15.8782 31.9047 15.6272C31.8419 15.3763 31.7497 15.1488 31.6337 14.9578C31.5177 14.7668 31.3801 14.6163 31.2289 14.5148C31.0777 14.4134 30.916 14.3632 30.7531 14.367H1.24693ZM1.24693 28.7338C1.08402 28.73 0.922273 28.7802 0.771093 28.8817C0.619913 28.9831 0.482315 29.1336 0.366295 29.3246C0.250274 29.5156 0.158146 29.7431 0.0952641 29.9941C0.0323819 30.245 0 30.5143 0 30.7863C0 31.0582 0.0323819 31.3275 0.0952641 31.5784C0.158146 31.8294 0.250274 32.0569 0.366295 32.2479C0.482315 32.4389 0.619913 32.5894 0.771093 32.6908C0.922273 32.7923 1.08402 32.8425 1.24693 32.8386H30.7531C30.916 32.8425 31.0777 32.7923 31.2289 32.6908C31.3801 32.5894 31.5177 32.4389 31.6337 32.2479C31.7497 32.0569 31.8419 31.8294 31.9047 31.5784C31.9676 31.3275 32 31.0582 32 30.7863C32 30.5143 31.9676 30.245 31.9047 29.9941C31.8419 29.7431 31.7497 29.5156 31.6337 29.3246C31.5177 29.1336 31.3801 28.9831 31.2289 28.8817C31.0777 28.7802 30.916 28.73 30.7531 28.7338H1.24693Z" fill="#9934B8"/>
</svg>
