<svg width="30" height="21" viewBox="0 0 30 21" fill="none" xmlns="http://www.w3.org/2000/svg">
<path d="M18.411 18.6323C17.8827 18.9037 17.3627 19.1724 16.842 19.4398C16.2526 19.7424 15.6631 20.0447 15.0716 20.3436C15.0401 20.3595 14.983 20.356 14.9503 20.3392C13.7606 19.7308 12.5714 19.1215 11.3844 18.5084C10.3688 17.9837 9.3569 17.4523 8.34157 16.9271C7.43926 16.4604 6.53401 15.9989 5.63095 15.5335C4.67276 15.0397 3.71549 14.5442 2.75815 14.0489C2.57756 13.9555 2.39848 13.8594 2.21529 13.7627C2.36867 13.2398 2.51808 12.7241 2.67133 12.2096C2.83649 11.655 3.00609 11.1017 3.17032 10.5469C3.18008 10.5139 3.17104 10.4653 3.15116 10.4363C2.25501 9.12892 1.35658 7.82297 0.458683 6.51669C0.311374 6.30238 0.165317 6.08728 0 5.84519C1.38369 6.10099 2.73821 6.3514 4.10542 6.60415C4.10542 4.39974 4.10542 2.20876 4.10542 0C4.14552 0.0243006 4.17114 0.037404 4.19398 0.0540136C6.12227 1.45646 8.05111 2.85822 9.97655 4.26426C10.0914 4.34815 10.1976 4.37274 10.3381 4.3522C11.5149 4.18005 12.6926 4.01313 13.8703 3.84616C14.2399 3.79376 14.6097 3.74187 14.9806 3.69907C15.0704 3.68871 15.1653 3.71247 15.2571 3.72543C16.6158 3.91737 17.9743 4.11031 19.333 4.30248C19.4946 4.32534 19.6563 4.34973 19.8188 4.36309C19.8617 4.36661 19.9146 4.33989 19.9518 4.31297C20.7374 3.74423 21.5215 3.17354 22.3058 2.60307C23.4837 1.74628 24.6615 0.889357 25.8394 0.0326296C25.8507 0.0244481 25.8635 0.0182065 25.89 0.00247876C25.89 2.21086 25.89 4.40535 25.89 6.61494C27.2603 6.35816 28.617 6.10393 30 5.84476C29.9212 5.96583 29.8572 6.06861 29.7888 6.16867C28.8877 7.48673 27.9861 8.80442 27.0845 10.1222C27.0589 10.1596 27.0393 10.2032 27.0063 10.233C26.8191 10.4019 26.8433 10.5859 26.9117 10.8052C27.2072 11.7536 27.4826 12.7077 27.7696 13.6586C27.7945 13.7407 27.7729 13.7761 27.6994 13.814C26.6725 14.3436 25.647 14.8756 24.6212 15.4071C23.3766 16.052 22.132 16.6967 20.8877 17.342C20.1116 17.7444 19.336 18.1477 18.5604 18.5508C18.5125 18.5757 18.466 18.6029 18.411 18.6323ZM1.67669 6.87206C1.67259 6.87957 1.66849 6.88708 1.6701 6.90898C2.8184 8.59004 3.9667 10.2711 5.12484 11.9666C5.83098 10.5985 6.52667 9.25062 7.22581 7.89609C7.17788 7.8851 7.14805 7.87708 7.11773 7.87149C6.37362 7.73438 5.62948 7.59738 4.88529 7.46067C4.19834 7.33449 3.5115 7.20767 2.82424 7.08308C2.44282 7.01394 2.06063 6.94879 1.67669 6.87206ZM15.4789 9.21007C15.2993 9.23366 15.1112 9.30236 14.9413 9.27356C13.8007 9.08037 12.664 8.86608 11.5259 8.65937C10.6204 8.49491 9.71458 8.33234 8.80949 8.16595C8.73994 8.15316 8.71441 8.17595 8.68666 8.23051C8.54724 8.50473 8.40392 8.77714 8.26134 9.04988C7.9485 9.6483 7.63475 10.2463 7.32236 10.8449C7.00632 11.4505 6.69086 12.0564 6.37648 12.6628C6.2826 12.8439 6.19318 13.0271 6.09466 13.2234C6.57783 13.2234 7.03722 13.2234 7.49662 13.2234C8.93781 13.2235 10.379 13.2233 11.8202 13.2245C11.9673 13.2246 12.1061 13.2054 12.2324 13.1263C12.4702 12.9772 12.6702 12.7885 12.83 12.5668C13.2542 11.9779 13.6672 11.3817 14.0891 10.7913C14.2564 10.5573 14.4923 10.4032 14.7825 10.3537C15.2806 10.2689 15.6736 10.4364 15.9573 10.8417C16.3689 11.4298 16.7805 12.0181 17.2019 12.5999C17.3032 12.7397 17.4429 12.8539 17.5713 12.9864C18.3706 11.4485 19.1564 9.93652 19.9563 8.39749C19.3127 8.5162 18.7067 8.62954 18.1001 8.73947C17.2332 8.89657 16.3658 9.05118 15.4789 9.21007ZM27.7356 7.78749C27.9398 7.48763 28.1439 7.18778 28.3604 6.86972C28.2997 6.87888 28.2655 6.88304 28.2316 6.88932C27.7816 6.97279 27.3318 7.05691 26.8817 7.14018C25.8362 7.33363 24.7906 7.5264 23.7451 7.72003C23.1312 7.83373 22.5184 7.95344 21.903 8.05866C21.7819 8.07935 21.7252 8.1297 21.6747 8.2278C21.4035 8.75471 21.1236 9.27752 20.8504 9.80353C20.3855 10.6989 19.9241 11.5959 19.4595 12.4914C19.334 12.7332 19.2023 12.9722 19.0703 13.2182C19.1042 13.2203 19.1273 13.223 19.1504 13.2231C20.7351 13.2232 22.3198 13.2225 23.9045 13.2252C23.9867 13.2253 24.0299 13.1954 24.0716 13.1341C24.3331 12.7504 24.5988 12.3695 24.8612 11.9864C25.8165 10.5915 26.7711 9.19599 27.7356 7.78749ZM16.3708 14.4288C16.4288 14.3821 16.4869 14.3354 16.5449 14.2887C16.5359 14.2788 16.527 14.2689 16.5181 14.259C15.507 14.259 14.4959 14.259 13.5154 14.259C14.007 14.7392 14.5098 15.2303 15.021 15.7297C15.4702 15.2967 15.9147 14.8684 16.3708 14.4288Z" fill="white"/>
<path d="M15.4888 9.20847C16.3658 9.05119 17.2332 8.89658 18.1001 8.73948C18.7068 8.62955 19.3127 8.51621 19.9564 8.3975C19.1565 9.93653 18.3707 11.4485 17.5714 12.9864C17.443 12.8539 17.3032 12.7397 17.202 12.5999C16.7806 12.0181 16.369 11.4298 15.9573 10.8417C15.6737 10.4364 15.2806 10.2689 14.7826 10.3537C14.4924 10.4032 14.2565 10.5573 14.0892 10.7914C13.6672 11.3817 13.2543 11.978 12.8301 12.5668C12.6703 12.7886 12.4703 12.9772 12.2324 13.1263C12.1062 13.2054 11.9674 13.2247 11.8203 13.2245C10.3791 13.2233 8.93788 13.2236 7.49668 13.2234C7.03729 13.2234 6.57789 13.2234 6.09473 13.2234C6.19325 13.0271 6.28266 12.8439 6.37654 12.6628C6.69093 12.0564 7.00639 11.4505 7.32242 10.8449C7.63482 10.2463 7.94856 9.64831 8.2614 9.04989C8.40399 8.77715 8.5473 8.50474 8.68673 8.23052C8.71447 8.17596 8.74001 8.15317 8.80955 8.16596C9.71464 8.33235 10.6205 8.49492 11.526 8.65938C12.6641 8.86609 13.8007 9.08039 14.9413 9.27357C15.1113 9.30237 15.2993 9.23367 15.4888 9.20847Z" fill="black"/>
<path d="M27.7308 7.7941C26.7711 9.19599 25.8165 10.5915 24.8611 11.9864C24.5988 12.3695 24.333 12.7504 24.0716 13.1341C24.0298 13.1954 23.9867 13.2253 23.9045 13.2252C22.3198 13.2225 20.7351 13.2232 19.1504 13.223C19.1273 13.223 19.1042 13.2203 19.0703 13.2182C19.2023 12.9722 19.334 12.7332 19.4595 12.4914C19.9241 11.5959 20.3855 10.6989 20.8504 9.80353C21.1236 9.27751 21.4035 8.7547 21.6747 8.2278C21.7252 8.1297 21.7819 8.07935 21.9029 8.05866C22.5184 7.95344 23.1312 7.83372 23.7451 7.72003C24.7905 7.5264 25.8362 7.33363 26.8817 7.14018C27.3317 7.05691 27.7816 6.97279 28.2316 6.88932C28.2654 6.88304 28.2997 6.87888 28.3604 6.86971C28.1439 7.18777 27.9397 7.48763 27.7308 7.7941Z" fill="black"/>
<path d="M1.67891 6.88182C2.06076 6.94877 2.44296 7.01392 2.82437 7.08306C3.51164 7.20765 4.19847 7.33446 4.88542 7.46065C5.62962 7.59735 6.37375 7.73436 7.11787 7.87147C7.14819 7.87705 7.17802 7.88508 7.22594 7.89606C6.5268 9.25059 5.83111 10.5985 5.12497 11.9666C3.96683 10.2711 2.81853 8.59002 1.67114 6.89875C1.67206 6.88855 1.67891 6.88182 1.67891 6.88182Z" fill="#010101"/>
<path d="M16.3649 14.4344C15.9147 14.8684 15.4702 15.2967 15.021 15.7297C14.5097 15.2303 14.007 14.7392 13.5154 14.259C14.4958 14.259 15.5069 14.259 16.518 14.259C16.527 14.2689 16.5359 14.2788 16.5449 14.2886C16.4868 14.3354 16.4288 14.3821 16.3649 14.4344Z" fill="#010101"/>
</svg>
